<svg width="142" height="42" viewBox="0 0 142 42" fill="none" xmlns="http://www.w3.org/2000/svg">
<path d="M10.6592 35.7461C10.6592 39.3591 8.89757 41.1659 5.375 41.166C3.65896 41.166 2.34882 40.737 1.40039 39.834C0.452005 38.9533 6.934e-05 37.6207 0 35.8369V34.7754H3.25195V36.1982C3.25202 36.4014 3.29753 36.6723 3.36523 36.9883C3.43298 37.3043 3.54522 37.5529 3.68066 37.7109C3.81608 37.8689 3.99686 38.0042 4.26758 38.1396C4.53857 38.2751 4.85524 38.3203 5.26172 38.3203C5.66819 38.3203 6.00734 38.2527 6.27832 38.1172C6.54906 37.9817 6.72981 37.7786 6.86523 37.5078C6.97815 37.2368 7.04566 36.9429 7.09082 36.6719C7.1134 36.4009 7.13574 36.0618 7.13574 35.6328V24.7031H10.6592V35.7461ZM20.791 24.3193C23.1394 24.3194 25.0362 25.1099 26.4814 26.668C27.9267 28.2261 28.6719 30.259 28.6719 32.7656C28.6718 35.2946 27.9266 37.3268 26.4814 38.8623C25.0363 40.3978 23.1169 41.1659 20.7686 41.166C18.3748 41.166 16.455 40.3979 15.0098 38.8623C13.542 37.3268 12.8194 35.2947 12.8193 32.7656C12.8193 30.2364 13.542 28.1811 14.9873 26.6455C16.4326 25.11 18.3748 24.3193 20.791 24.3193ZM34.5283 34.3232C34.5283 35.633 34.7767 36.604 35.2734 37.2363C35.7702 37.8686 36.6736 38.1855 37.9834 38.1855C39.2479 38.1855 40.106 37.8686 40.5576 37.2363C41.0092 36.604 41.2578 35.6329 41.2578 34.3232V24.7031H44.7803V34.3691C44.7802 36.6723 44.2158 38.3888 43.1094 39.4727C42.0028 40.5565 40.2859 41.0986 37.9375 41.0986C35.544 41.0986 33.8058 40.5557 32.6768 39.4492C31.5476 38.3427 31.0049 36.6266 31.0049 34.3232V24.7031H34.5283V34.3232ZM55.9639 24.7256C57.5444 24.7257 58.854 25.0877 59.8701 25.8555C60.8637 26.6007 61.3828 27.7526 61.3828 29.2881C61.3827 30.2137 61.1576 31.0267 60.7061 31.7266C60.2544 32.4266 59.6214 32.9231 58.8311 33.2393C60.2086 33.5102 60.9989 34.7752 61.2021 36.9883C61.2021 37.0561 61.2029 37.2822 61.248 37.6885C61.2706 38.0723 61.2927 38.3885 61.3379 38.6143C61.3532 38.7669 61.3793 38.9507 61.4082 39.1582C61.4221 39.2576 61.4366 39.363 61.4512 39.4727C61.4963 39.7886 61.564 40.0819 61.6543 40.3076C61.7446 40.5334 61.8352 40.6918 61.9707 40.8047H58.3115C58.1761 40.5563 58.0862 40.2401 58.041 39.8789C57.9733 39.5176 57.928 39.0432 57.8828 38.4561C57.8377 37.8699 57.8155 37.5538 57.8154 37.4854C57.6799 36.3563 57.4086 35.5884 56.957 35.1367C56.5054 34.7077 55.7375 34.4814 54.6084 34.4814H51.4697V40.7822H47.9697V24.7031L55.9639 24.7256ZM74.3379 35.4756V24.7031H77.7256V40.7822H74.2031L67.541 29.9873V40.7822H64.1309V24.7031H67.7217L74.3379 35.4756ZM92.9287 27.5938H84.3691V31.0938H92.21L90.3896 33.8721H84.3691V37.8242H87.7988L85.8604 40.7822H80.8691V24.7031H92.9287V27.5938ZM103.235 34.5947V40.7822H99.7578V34.5264L96.1484 28.624L98.583 26.0977L101.52 31.1396L105.313 24.7031H109.22L103.235 34.5947ZM20.7451 27.21C19.4131 27.2101 18.3518 27.7293 17.5615 28.7227C16.7712 29.7162 16.3643 31.0488 16.3643 32.7197C16.3643 34.436 16.7713 35.7915 17.5391 36.7852C18.3294 37.7561 19.4136 38.2528 20.791 38.2754C22.1232 38.2753 23.1844 37.7786 23.9521 36.7852C24.7199 35.7915 25.1035 34.436 25.1035 32.7197C25.1034 31.0262 24.6974 29.6937 23.9297 28.7002C23.1393 27.7067 22.0774 27.21 20.7451 27.21ZM51.4697 31.9521H54.8115C55.7826 31.9521 56.5508 31.7947 57.0928 31.4785C57.6347 31.1624 57.9277 30.575 57.9277 29.6719C57.9277 28.8137 57.6572 28.2486 57.1152 27.9551C56.5733 27.6389 55.873 27.5039 54.9697 27.5039H51.4697V31.9521ZM121.102 0C122.785 0.0410664 124.163 0.468439 125.257 1.2832C126.386 2.1413 126.973 3.40592 127.019 5.12207L123.653 5.14453C123.518 3.54152 122.502 2.75106 120.605 2.75098C119.793 2.75098 119.16 2.90943 118.708 3.22559C118.257 3.54169 118.008 3.99317 118.008 4.58008C118.008 4.76071 118.053 4.94155 118.099 5.09961C118.166 5.23509 118.279 5.37037 118.438 5.50586C118.618 5.64135 118.776 5.73194 118.935 5.82227C119.115 5.91254 119.364 6.00348 119.68 6.09375C119.995 6.18399 120.289 6.27402 120.56 6.36426C120.831 6.432 121.193 6.52271 121.667 6.6582C122.164 6.77108 122.57 6.8842 122.932 6.99707C124.512 7.44869 125.709 8.01304 126.477 8.69043C127.244 9.3679 127.628 10.3389 127.628 11.6035C127.628 12.5068 127.447 13.3196 127.063 13.9971C126.702 14.6745 126.183 15.2166 125.551 15.623C124.918 16.0295 124.218 16.3232 123.45 16.5039C122.683 16.6845 121.87 16.7969 121.012 16.7969C118.844 16.7969 117.128 16.2778 115.908 15.2842C114.689 14.2906 114.057 12.8681 114.034 11.0615H117.534C117.602 13.0713 118.821 14.0879 121.17 14.0879C122.096 14.0879 122.818 13.8839 123.36 13.5C123.902 13.1162 124.15 12.5971 124.15 11.9424C124.15 11.3778 123.925 10.9711 123.428 10.7227C122.931 10.4517 121.915 10.1127 120.334 9.66113C120.31 9.65511 120.287 9.64914 120.267 9.64355C120.209 9.62821 120.164 9.61621 120.131 9.61621C120.086 9.59364 120.04 9.5714 119.95 9.54883C119.882 9.52625 119.815 9.50293 119.747 9.50293L118.842 9.23242H118.841C118.755 9.20633 118.681 9.18306 118.618 9.16406H118.617C118.414 9.09629 118.075 8.98404 117.624 8.82617C117.172 8.64556 116.834 8.50949 116.631 8.37402C116.485 8.28658 116.33 8.1708 116.153 8.03906H116.152L116.151 8.03809C116.055 7.96607 115.951 7.88918 115.84 7.80957C115.524 7.56131 115.321 7.31281 115.186 7.04199C115.093 6.85773 115.002 6.65207 114.917 6.41895L121.102 0ZM68.9307 0.357422C70.5112 0.357427 71.8208 0.718736 72.8369 1.48633C73.8305 2.23153 74.3506 3.3834 74.3506 4.91895C74.3506 5.84482 74.1245 6.65835 73.6729 7.3584C73.2213 8.05822 72.589 8.55499 71.7988 8.87109C73.1761 9.14217 73.9666 10.4065 74.1699 12.6191C74.1699 12.6869 74.1697 12.9131 74.2148 13.3193C74.2374 13.703 74.2605 14.0193 74.3057 14.2451C74.3209 14.3974 74.3462 14.5811 74.375 14.7881V14.7891C74.3889 14.8885 74.4033 14.9938 74.418 15.1035C74.4631 15.4197 74.5308 15.7136 74.6211 15.9395C74.7114 16.1651 74.8022 16.3227 74.9375 16.4355H71.2793C71.1439 16.1872 71.053 15.8709 71.0078 15.5098C70.9401 15.1486 70.8957 14.6746 70.8506 14.0879C70.8054 13.5007 70.7822 13.184 70.7822 13.1162C70.6467 11.9872 70.3754 11.2192 69.9238 10.7676C69.4722 10.3388 68.7047 10.1133 67.5762 10.1133H64.4365V16.4131H60.9365V0.334961L68.9307 0.357422ZM100.29 0.357422C101.871 0.357422 103.181 0.718528 104.197 1.48633C105.191 2.23153 105.71 3.38349 105.71 4.91895C105.71 5.84482 105.484 6.65835 105.032 7.3584C104.581 8.05822 103.948 8.555 103.158 8.87109C104.536 9.14214 105.326 10.4065 105.529 12.6191C105.529 12.6869 105.529 12.9131 105.574 13.3193C105.597 13.703 105.62 14.0193 105.665 14.2451C105.68 14.3979 105.705 14.5823 105.734 14.79C105.748 14.8893 105.763 14.9941 105.777 15.1035C105.823 15.4197 105.89 15.7136 105.98 15.9395C105.993 15.971 106.006 16.0013 106.019 16.0303L105.999 16.0508L106.188 16.4355H102.639C102.503 16.1872 102.412 15.8709 102.367 15.5098C102.299 15.1486 102.255 14.6746 102.21 14.0879C102.165 13.5007 102.142 13.184 102.142 13.1162C102.006 11.9873 101.736 11.2192 101.284 10.7676C100.833 10.3386 100.064 10.1133 98.9355 10.1133H95.7959V16.4131H92.2959V0.334961L100.29 0.357422ZM13.0303 3.22559H4.47168V6.72559H12.3301V9.50293H4.47168V13.4551H13.1885V16.4131H0.970703V0.334961H13.0303V3.22559ZM25.8213 11.1064V0.334961H29.209V16.4131H25.6855L19.0244 5.61914V16.4131H15.6143V0.334961H19.2051L25.8213 11.1064ZM44.2988 3.33789H39.4658V16.4131H35.9209V3.33789H31.0879V0.334961H44.2988V3.33789ZM58.2168 3.22559H49.6582V6.72559H57.5166V9.50293H49.6582V13.4551H58.375V16.4131H46.1582V0.334961H58.2168V3.22559ZM84.0537 0.334961C85.8601 0.334987 87.2824 0.786589 88.3438 1.64453C89.4051 2.50261 89.9472 3.78976 89.9473 5.50586C89.9473 7.19928 89.4057 8.4866 88.3672 9.34473C87.3058 10.2028 85.928 10.6328 84.2344 10.6328H80.6211V16.4131H77.1211V0.334961H84.0537ZM141.842 3.22559H133.283V6.72559H141.142V9.50293H133.283V13.4551H142V16.4131H129.783V0.334961H141.842V3.22559ZM112.003 9.81934L108.458 13.499V0.334961H112.003V9.81934ZM80.6211 7.85449H83.7598C85.5888 7.85449 86.5145 7.08708 86.5146 5.55176C86.5146 4.01616 85.5888 3.22559 83.7822 3.22559H80.6211V7.85449ZM64.4365 7.58398H67.7793C68.7501 7.58394 69.5177 7.42546 70.0596 7.10938C70.6015 6.79322 70.8955 6.20603 70.8955 5.30273C70.8955 4.44472 70.624 3.88046 70.082 3.58691C69.5401 3.27081 68.8398 3.13477 67.9365 3.13477H64.4365V7.58398ZM95.7959 7.58398H99.1387C100.109 7.58395 100.877 7.42545 101.419 7.10938C101.961 6.79322 102.255 6.20603 102.255 5.30273C102.255 4.44472 101.983 3.88046 101.441 3.58691C100.9 3.27088 100.2 3.13481 99.2969 3.13477H95.7959V7.58398Z" fill="white"/>
</svg>
